<svg width="25" height="25" viewBox="0 0 25 25" fill="none" xmlns="http://www.w3.org/2000/svg">
<path d="M22.6985 9.41405H22.1677C21.9953 8.8745 21.7778 8.35038 21.5172 7.84681L21.8931 7.47093C22.8045 6.56053 22.78 5.10155 21.8934 4.21581L20.7844 3.10693C19.8992 2.22055 18.44 2.19487 17.5293 3.10659L17.1531 3.48276C16.6496 3.22221 16.1254 3.00463 15.5859 2.83222V2.30141C15.5859 1.03242 14.5535 0 13.2844 0H11.7155C10.4465 0 9.41405 1.03242 9.41405 2.30141V2.83222C8.87454 3.00458 8.35038 3.22216 7.84681 3.48276L7.47098 3.10693C6.56215 2.19702 5.10292 2.21836 4.21591 3.10663L3.10688 4.21557C2.22055 5.10092 2.19492 6.56 3.10659 7.47069L3.48276 7.84686C3.22216 8.35042 3.00463 8.8745 2.83222 9.41409H2.30146C1.03247 9.41405 0 10.4465 0 11.7155V13.2845C0 14.5535 1.03247 15.5859 2.30146 15.5859H2.83222C3.00463 16.1255 3.22216 16.6496 3.48276 17.1531L3.10688 17.529C2.1955 18.4394 2.21992 19.8984 3.10659 20.7841L4.21552 21.893C5.10072 22.7794 6.56 22.8051 7.47064 21.8934L7.84681 21.5172C8.35038 21.7777 8.87454 21.9953 9.41405 22.1677V22.6985C9.41405 23.9675 10.4465 25 11.7155 25H13.2845C14.5535 25 15.586 23.9675 15.586 22.6985V22.1677C16.1255 21.9954 16.6496 21.7778 17.1532 21.5172L17.529 21.893C18.4379 22.8029 19.897 22.7816 20.7841 21.8933L21.8931 20.7843C22.7795 19.899 22.8051 18.4399 21.8934 17.5292L21.5172 17.153C21.7778 16.6495 21.9954 16.1254 22.1678 15.5858H22.6985C23.9675 15.5858 25 14.5534 25 13.2844V11.7154C25 10.4465 23.9675 9.41405 22.6985 9.41405ZM12.5 17.9394C9.50062 17.9394 7.06053 15.4993 7.06053 12.5C7.06053 9.50067 9.50062 7.06053 12.5 7.06053C15.4993 7.06053 17.9394 9.50067 17.9394 12.5C17.9394 15.4993 15.4993 17.9394 12.5 17.9394Z" fill="#B1B1B1"/>
</svg>
